<?xml version="1.0" standalone="no"?>
<!DOCTYPE svg PUBLIC "-//W3C//DTD SVG 20010904//EN"
 "http://www.w3.org/TR/2001/REC-SVG-20010904/DTD/svg10.dtd">
<svg version="1.0" xmlns="http://www.w3.org/2000/svg"
 width="512.000000pt" height="512.000000pt" viewBox="0 0 512.000000 512.000000"
 preserveAspectRatio="xMidYMid meet">

<g transform="translate(0.000000,512.000000) scale(0.100000,-0.100000)"
fill="#000000" stroke="none">
<path d="M2040 4193 c-47 -8 -132 -44 -175 -73 -24 -16 -70 -59 -102 -95 l-59
-65 -48 16 c-34 12 -70 15 -127 12 -111 -7 -193 -49 -328 -170 -162 -146 -476
-383 -976 -738 -185 -131 -211 -153 -220 -187 -15 -60 34 -123 95 -123 42 0
47 3 265 159 540 385 812 590 946 714 145 132 204 160 287 138 l42 -12 0 -633
0 -634 -76 -33 c-42 -18 -87 -46 -100 -62 -60 -72 6 -179 97 -158 35 9 629
279 989 451 224 107 295 134 391 149 146 24 229 -51 231 -207 0 -59 -5 -80
-32 -136 -39 -78 -118 -164 -207 -224 -125 -84 -385 -208 -558 -266 -44 -14
-73 -38 -200 -167 -314 -316 -401 -375 -628 -424 -45 -10 -302 -28 -692 -50
-773 -43 -789 -45 -823 -79 -40 -39 -37 -98 6 -137 40 -36 19 -36 569 -4 235
13 522 29 637 35 115 5 250 17 300 26 76 13 208 51 266 77 11 5 22 -6 40 -40
35 -65 92 -107 180 -128 120 -29 257 -6 355 61 21 14 38 24 39 22 2 -2 12 -19
24 -38 50 -84 147 -143 266 -161 119 -19 226 16 343 111 l63 51 32 -18 c26
-14 56 -18 138 -18 100 0 109 2 174 34 162 79 282 278 310 514 l7 57 464 0
c303 0 482 4 517 11 169 36 311 178 347 347 14 70 15 1635 1 1713 -34 183
-206 348 -396 379 -57 10 -2620 12 -2674 3z m2706 -227 c98 -46 163 -136 164
-228 l0 -48 -1536 0 -1536 0 7 43 c15 100 106 218 187 244 23 8 448 11 1348
12 l1315 1 51 -24z m164 -1258 c0 -554 -1 -574 -21 -618 -25 -54 -42 -75 -94
-109 l-40 -26 -995 -3 -995 -2 120 66 c264 145 391 269 462 452 23 57 27 83
27 177 1 107 0 112 -35 186 -48 99 -96 151 -177 191 -63 31 -72 33 -172 32
-148 -1 -279 -43 -528 -168 -86 -44 -610 -286 -618 -286 -7 0 -4 666 3 673 3
4 694 7 1535 7 l1528 0 0 -572z m-2484 -985 c-2 -10 -10 -71 -17 -135 l-12
-117 -50 -51 c-70 -69 -135 -100 -211 -100 -73 0 -106 15 -119 53 -8 26 0 35
165 197 163 160 175 170 211 170 32 0 38 -3 33 -17z m591 -5 c-14 -58 -29
-249 -23 -304 l6 -61 -50 -52 c-79 -83 -158 -108 -251 -80 -51 16 -79 48 -95
110 -12 46 -11 73 8 230 l22 179 194 0 194 0 -5 -22z m548 -45 c-41 -213 -139
-336 -271 -337 -75 -1 -88 14 -93 112 -3 68 14 265 26 285 2 4 82 7 177 7
l174 0 -13 -67z"/>
</g>
</svg>
