<?xml version="1.0" encoding="iso-8859-1"?>
<!-- Generator: Adobe Illustrator 19.0.0, SVG Export Plug-In . SVG Version: 6.00 Build 0)  -->
<svg version="1.1" id="Capa_1" xmlns="http://www.w3.org/2000/svg" xmlns:xlink="http://www.w3.org/1999/xlink" x="0px" y="0px"
	 viewBox="0 0 512 512" style="enable-background:new 0 0 512 512;" xml:space="preserve">
<g>
	<g>
		<path d="M507.606,169.743L382.023,44.16c-5.857-5.858-15.356-5.858-21.214,0L106.542,298.427c-5.858,5.858-5.858,15.356,0,21.214
			l125.583,125.583c5.21,5.21,13.432,5.864,19.4,1.546c97.786-70.754,186.872-159.84,257.627-257.627
			C513.47,183.174,512.816,174.952,507.606,169.743z M386.766,162.215c-8.477,8.477-22.222,8.477-30.699,0
			c-8.477-8.477-8.477-22.222,0-30.699c8.477-8.477,22.222-8.477,30.699,0C395.243,139.993,395.243,153.737,386.766,162.215z"/>
	</g>
</g>
<g>
	<g>
		<path d="M74.722,330.248l-60.814,60.814c-18.544,18.544-18.544,48.718,0,67.263c18.543,18.544,48.718,18.545,67.263,0
			l60.814-60.814L74.722,330.248z"/>
	</g>
</g>
<g>
</g>
<g>
</g>
<g>
</g>
<g>
</g>
<g>
</g>
<g>
</g>
<g>
</g>
<g>
</g>
<g>
</g>
<g>
</g>
<g>
</g>
<g>
</g>
<g>
</g>
<g>
</g>
<g>
</g>
</svg>
