<?xml version="1.0" standalone="no"?>
<!DOCTYPE svg PUBLIC "-//W3C//DTD SVG 20010904//EN" "http://www.w3.org/TR/2001/REC-SVG-20010904/DTD/svg10.dtd">
<svg version="1.0" xmlns="http://www.w3.org/2000/svg" width="200.000000pt" height="200.000000pt"
	viewBox="0 0 200.000000 200.000000" preserveAspectRatio="xMidYMid meet">

	<g transform="translate(0.000000,200.000000) scale(0.100000,-0.100000)" fill="#000000" stroke="none">
		<path d="M658 1648 c-15 -22 -13 -24 39 -55 65 -39 85 -41 138 -8 50 31 56 31
105 0 50 -32 71 -31 130 2 l48 27 50 -27 c27 -15 57 -27 67 -27 10 0 40 12 67
27 l50 27 48 -27 c59 -33 80 -34 130 -2 49 31 55 31 105 0 49 -31 49 -31 63 0
10 23 8 26 -42 55 -65 37 -85 37 -143 3 l-46 -27 -47 27 c-60 34 -80 34 -140
0 l-47 -27 -46 27 c-57 34 -77 34 -137 0 l-47 -27 -46 27 c-25 15 -55 27 -67
27 -12 0 -43 -12 -70 -27 l-47 -27 -46 27 c-25 15 -48 27 -50 27 -3 0 -11 -10
-19 -22z" />
		<path d="M812 1208 l3 -303 365 0 365 0 3 303 2 302 -30 0 -30 0 0 -280 0
-280 -312 2 -313 3 -3 278 -2 277 -25 0 -25 0 2 -302z" />
		<path d="M1013 1390 c-28 -26 -36 -52 -24 -83 22 -58 102 -72 136 -24 52 74
-47 168 -112 107z m67 -54 c0 -20 -19 -31 -32 -18 -6 6 -7 15 -4 21 10 16 36
13 36 -3z" />
		<path d="M1165 1250 l-130 -130 23 -22 22 -23 132 132 c131 131 132 132 113
153 -10 11 -21 20 -24 20 -4 0 -65 -58 -136 -130z" />
		<path d="M668 1264 c-53 -28 -58 -54 -58 -274 l0 -200 -48 0 c-36 0 -54 5 -67
20 -25 27 -85 44 -128 36 -44 -8 -93 -62 -103 -110 -12 -69 59 -156 128 -156
70 0 138 61 138 123 0 25 3 27 43 27 58 0 107 -47 107 -103 0 -34 -2 -37 -28
-37 -66 0 -132 -67 -132 -135 0 -36 30 -88 64 -110 122 -80 263 68 181 189
-33 49 -35 111 -2 120 12 3 106 6 208 6 174 0 188 1 213 21 32 25 56 69 56
104 l0 25 -240 0 -240 0 0 235 0 235 -32 0 c-18 -1 -45 -7 -60 -16z m42 -294
c0 -132 -4 -240 -8 -240 -28 0 -32 30 -32 240 0 210 4 240 32 240 4 0 8 -108
8 -240z m-260 -200 c44 -44 9 -130 -52 -130 -36 0 -78 40 -78 73 0 13 9 36 21
51 26 33 79 36 109 6z m701 -41 c-22 -18 -37 -19 -205 -17 -163 3 -181 5 -184
21 -3 16 12 17 205 17 l208 -1 -24 -20z m-441 -219 c44 -44 9 -130 -52 -130
-37 0 -78 40 -78 76 0 63 85 99 130 54z" />
		<path d="M1235 1155 c-31 -30 -32 -66 -2 -101 17 -20 33 -27 57 -27 39 0 80
40 80 79 0 35 -42 74 -80 74 -19 0 -40 -9 -55 -25z m73 -52 c-2 -10 -10 -18
-18 -18 -8 0 -16 8 -18 18 -2 12 3 17 18 17 15 0 20 -5 18 -17z" />
	</g>
</svg>